<mxfile host="app.diagrams.net" modified="2021-04-18T08:20:45.043Z" agent="5.0 (Macintosh; Intel Mac OS X 10_15_4) AppleWebKit/537.36 (KHTML, like Gecko) Chrome/89.0.4389.90 Safari/537.36" etag="YlDfeFBrLqnqHpYNUMx8" version="14.5.10" type="github">
  <diagram id="C5RBs43oDa-KdzZeNtuy" name="Page-1">
    <mxGraphModel dx="1645" dy="686" grid="1" gridSize="10" guides="1" tooltips="1" connect="1" arrows="1" fold="1" page="1" pageScale="1" pageWidth="827" pageHeight="1169" math="0" shadow="0">
      <root>
        <mxCell id="WIyWlLk6GJQsqaUBKTNV-0" />
        <mxCell id="WIyWlLk6GJQsqaUBKTNV-1" parent="WIyWlLk6GJQsqaUBKTNV-0" />
        <mxCell id="zkfFHV4jXpPFQw0GAbJ--0" value="LionLog" style="swimlane;fontStyle=3;align=center;verticalAlign=top;childLayout=stackLayout;horizontal=1;startSize=26;horizontalStack=0;resizeParent=1;resizeLast=0;collapsible=1;marginBottom=0;rounded=0;shadow=0;strokeWidth=1;" parent="WIyWlLk6GJQsqaUBKTNV-1" vertex="1">
          <mxGeometry x="40" y="80" width="450" height="190" as="geometry">
            <mxRectangle x="220" y="100" width="160" height="26" as="alternateBounds" />
          </mxGeometry>
        </mxCell>
        <mxCell id="zkfFHV4jXpPFQw0GAbJ--4" value="" style="line;html=1;strokeWidth=1;align=left;verticalAlign=middle;spacingTop=-1;spacingLeft=3;spacingRight=3;rotatable=0;labelPosition=right;points=[];portConstraint=eastwest;" parent="zkfFHV4jXpPFQw0GAbJ--0" vertex="1">
          <mxGeometry y="26" width="450" height="8" as="geometry" />
        </mxCell>
        <mxCell id="zkfFHV4jXpPFQw0GAbJ--5" value="fun verbose(var tag, ...content: Any)" style="text;align=left;verticalAlign=top;spacingLeft=4;spacingRight=4;overflow=hidden;rotatable=0;points=[[0,0.5],[1,0.5]];portConstraint=eastwest;" parent="zkfFHV4jXpPFQw0GAbJ--0" vertex="1">
          <mxGeometry y="34" width="450" height="20" as="geometry" />
        </mxCell>
        <mxCell id="gvlKlWatHik-HKqaGJol-3" value="fun debug(var tag, ...content: Any)" style="text;align=left;verticalAlign=top;spacingLeft=4;spacingRight=4;overflow=hidden;rotatable=0;points=[[0,0.5],[1,0.5]];portConstraint=eastwest;" vertex="1" parent="zkfFHV4jXpPFQw0GAbJ--0">
          <mxGeometry y="54" width="450" height="20" as="geometry" />
        </mxCell>
        <mxCell id="gvlKlWatHik-HKqaGJol-4" value="fun info(var tag, ...content: Any)" style="text;align=left;verticalAlign=top;spacingLeft=4;spacingRight=4;overflow=hidden;rotatable=0;points=[[0,0.5],[1,0.5]];portConstraint=eastwest;" vertex="1" parent="zkfFHV4jXpPFQw0GAbJ--0">
          <mxGeometry y="74" width="450" height="20" as="geometry" />
        </mxCell>
        <mxCell id="gvlKlWatHik-HKqaGJol-5" value="fun warm(var tag, ...content: Any)" style="text;align=left;verticalAlign=top;spacingLeft=4;spacingRight=4;overflow=hidden;rotatable=0;points=[[0,0.5],[1,0.5]];portConstraint=eastwest;" vertex="1" parent="zkfFHV4jXpPFQw0GAbJ--0">
          <mxGeometry y="94" width="450" height="20" as="geometry" />
        </mxCell>
        <mxCell id="gvlKlWatHik-HKqaGJol-6" value="fun error(var tag, ...content: Any)" style="text;align=left;verticalAlign=top;spacingLeft=4;spacingRight=4;overflow=hidden;rotatable=0;points=[[0,0.5],[1,0.5]];portConstraint=eastwest;" vertex="1" parent="zkfFHV4jXpPFQw0GAbJ--0">
          <mxGeometry y="114" width="450" height="20" as="geometry" />
        </mxCell>
        <mxCell id="gvlKlWatHik-HKqaGJol-7" value="fun asset(var tag, ...content: Any)" style="text;align=left;verticalAlign=top;spacingLeft=4;spacingRight=4;overflow=hidden;rotatable=0;points=[[0,0.5],[1,0.5]];portConstraint=eastwest;" vertex="1" parent="zkfFHV4jXpPFQw0GAbJ--0">
          <mxGeometry y="134" width="450" height="20" as="geometry" />
        </mxCell>
        <mxCell id="gvlKlWatHik-HKqaGJol-8" value="fun log(var config: LionLogConfig, var type: LionLogType,var tag, ...content: Any)" style="text;align=left;verticalAlign=top;spacingLeft=4;spacingRight=4;overflow=hidden;rotatable=0;points=[[0,0.5],[1,0.5]];portConstraint=eastwest;" vertex="1" parent="zkfFHV4jXpPFQw0GAbJ--0">
          <mxGeometry y="154" width="450" height="20" as="geometry" />
        </mxCell>
        <mxCell id="zkfFHV4jXpPFQw0GAbJ--6" value="LionFilePrinter" style="swimlane;fontStyle=1;align=center;verticalAlign=top;childLayout=stackLayout;horizontal=1;startSize=26;horizontalStack=0;resizeParent=1;resizeLast=0;collapsible=1;marginBottom=0;rounded=0;shadow=0;strokeWidth=1;" parent="WIyWlLk6GJQsqaUBKTNV-1" vertex="1">
          <mxGeometry x="60" y="640" width="160" height="40" as="geometry">
            <mxRectangle x="130" y="380" width="160" height="26" as="alternateBounds" />
          </mxGeometry>
        </mxCell>
        <mxCell id="zkfFHV4jXpPFQw0GAbJ--9" value="" style="line;html=1;strokeWidth=1;align=left;verticalAlign=middle;spacingTop=-1;spacingLeft=3;spacingRight=3;rotatable=0;labelPosition=right;points=[];portConstraint=eastwest;" parent="zkfFHV4jXpPFQw0GAbJ--6" vertex="1">
          <mxGeometry y="26" width="160" height="8" as="geometry" />
        </mxCell>
        <mxCell id="gvlKlWatHik-HKqaGJol-31" value="" style="endArrow=block;dashed=1;endFill=0;endSize=9;html=1;entryX=0.25;entryY=1;entryDx=0;entryDy=0;jumpSize=4;startSize=5;" edge="1" parent="zkfFHV4jXpPFQw0GAbJ--6" target="gvlKlWatHik-HKqaGJol-13">
          <mxGeometry width="160" relative="1" as="geometry">
            <mxPoint x="80" y="-1" as="sourcePoint" />
            <mxPoint x="240" y="-1" as="targetPoint" />
          </mxGeometry>
        </mxCell>
        <mxCell id="zkfFHV4jXpPFQw0GAbJ--13" value="LionViewPrinter" style="swimlane;fontStyle=1;align=center;verticalAlign=top;childLayout=stackLayout;horizontal=1;startSize=26;horizontalStack=0;resizeParent=1;resizeLast=0;collapsible=1;marginBottom=0;rounded=0;shadow=0;strokeWidth=1;" parent="WIyWlLk6GJQsqaUBKTNV-1" vertex="1">
          <mxGeometry x="240" y="830" width="230" height="88" as="geometry">
            <mxRectangle x="340" y="380" width="170" height="26" as="alternateBounds" />
          </mxGeometry>
        </mxCell>
        <mxCell id="zkfFHV4jXpPFQw0GAbJ--14" value="recyclerView:  RecyclerView&#xa;adapter: LogAdapter&#xa;viewProvider: LionViewPrinterProvider" style="text;align=left;verticalAlign=top;spacingLeft=4;spacingRight=4;overflow=hidden;rotatable=0;points=[[0,0.5],[1,0.5]];portConstraint=eastwest;" parent="zkfFHV4jXpPFQw0GAbJ--13" vertex="1">
          <mxGeometry y="26" width="230" height="54" as="geometry" />
        </mxCell>
        <mxCell id="zkfFHV4jXpPFQw0GAbJ--15" value="" style="line;html=1;strokeWidth=1;align=left;verticalAlign=middle;spacingTop=-1;spacingLeft=3;spacingRight=3;rotatable=0;labelPosition=right;points=[];portConstraint=eastwest;" parent="zkfFHV4jXpPFQw0GAbJ--13" vertex="1">
          <mxGeometry y="80" width="230" height="8" as="geometry" />
        </mxCell>
        <mxCell id="gvlKlWatHik-HKqaGJol-0" value="Log打印视图" style="shape=callout;whiteSpace=wrap;html=1;perimeter=calloutPerimeter;position2=0;" vertex="1" parent="WIyWlLk6GJQsqaUBKTNV-1">
          <mxGeometry x="510" y="80" width="110" height="50" as="geometry" />
        </mxCell>
        <mxCell id="gvlKlWatHik-HKqaGJol-11" value="" style="endArrow=none;dashed=1;html=1;entryX=0.5;entryY=0;entryDx=0;entryDy=0;" edge="1" parent="WIyWlLk6GJQsqaUBKTNV-1" target="gvlKlWatHik-HKqaGJol-13">
          <mxGeometry width="50" height="50" relative="1" as="geometry">
            <mxPoint x="330" y="270" as="sourcePoint" />
            <mxPoint x="530" y="330" as="targetPoint" />
          </mxGeometry>
        </mxCell>
        <mxCell id="gvlKlWatHik-HKqaGJol-13" value="&lt;p style=&quot;margin: 0px ; margin-top: 4px ; text-align: center&quot;&gt;&lt;i&gt;&amp;lt;&amp;lt;Interface&amp;gt;&amp;gt;&lt;/i&gt;&lt;br&gt;&lt;b&gt;ILionLogPrinter&lt;/b&gt;&lt;/p&gt;&lt;hr size=&quot;1&quot;&gt;&lt;p style=&quot;margin: 0px 0px 0px 4px&quot;&gt;&lt;br&gt;&lt;/p&gt;&lt;hr size=&quot;1&quot;&gt;&lt;p style=&quot;margin: 0px ; margin-left: 4px&quot;&gt;+ fun print(var config: LionLogConfig, tag: String, logStr: String)&lt;br&gt;&lt;/p&gt;" style="verticalAlign=top;align=left;overflow=fill;fontSize=12;fontFamily=Helvetica;html=1;" vertex="1" parent="WIyWlLk6GJQsqaUBKTNV-1">
          <mxGeometry x="70" y="460" width="360" height="90" as="geometry" />
        </mxCell>
        <mxCell id="gvlKlWatHik-HKqaGJol-23" value="LionLogManager" style="swimlane;fontStyle=1;align=center;verticalAlign=top;childLayout=stackLayout;horizontal=1;startSize=26;horizontalStack=0;resizeParent=1;resizeParentMax=0;resizeLast=0;collapsible=1;marginBottom=0;" vertex="1" parent="WIyWlLk6GJQsqaUBKTNV-1">
          <mxGeometry x="334" y="290" width="336" height="130" as="geometry" />
        </mxCell>
        <mxCell id="gvlKlWatHik-HKqaGJol-25" value="" style="line;strokeWidth=1;fillColor=none;align=left;verticalAlign=middle;spacingTop=-1;spacingLeft=3;spacingRight=3;rotatable=0;labelPosition=right;points=[];portConstraint=eastwest;" vertex="1" parent="gvlKlWatHik-HKqaGJol-23">
          <mxGeometry y="26" width="336" height="8" as="geometry" />
        </mxCell>
        <mxCell id="gvlKlWatHik-HKqaGJol-26" value="+ getInstance(): LionLogManager&#xa;+ init(var config: LionLogConfig, var printers: ILionLogPrinter)&#xa;+ getConfig(): LionLogConfig&#xa;+ getPrinters():List&lt; ILionLogPrinter&gt;&#xa;+ addPrinter(var printer: ILionLogPrinter)&#xa;+ removePrinter(var printer: ILionLogPrinter)&#xa;&#xa;" style="text;strokeColor=none;fillColor=none;align=left;verticalAlign=top;spacingLeft=4;spacingRight=4;overflow=hidden;rotatable=0;points=[[0,0.5],[1,0.5]];portConstraint=eastwest;" vertex="1" parent="gvlKlWatHik-HKqaGJol-23">
          <mxGeometry y="34" width="336" height="96" as="geometry" />
        </mxCell>
        <mxCell id="gvlKlWatHik-HKqaGJol-27" value="" style="endArrow=none;dashed=1;html=1;entryX=0.5;entryY=0;entryDx=0;entryDy=0;exitX=0.75;exitY=1;exitDx=0;exitDy=0;" edge="1" parent="WIyWlLk6GJQsqaUBKTNV-1" source="zkfFHV4jXpPFQw0GAbJ--0" target="gvlKlWatHik-HKqaGJol-23">
          <mxGeometry width="50" height="50" relative="1" as="geometry">
            <mxPoint x="595" y="230" as="sourcePoint" />
            <mxPoint x="490" y="310" as="targetPoint" />
          </mxGeometry>
        </mxCell>
        <mxCell id="gvlKlWatHik-HKqaGJol-28" value="" style="endArrow=diamondThin;endFill=0;endSize=12;html=1;exitX=0.5;exitY=0;exitDx=0;exitDy=0;jumpSize=4;" edge="1" parent="WIyWlLk6GJQsqaUBKTNV-1" source="gvlKlWatHik-HKqaGJol-13">
          <mxGeometry width="160" relative="1" as="geometry">
            <mxPoint x="390" y="400" as="sourcePoint" />
            <mxPoint x="420" y="420" as="targetPoint" />
          </mxGeometry>
        </mxCell>
        <mxCell id="gvlKlWatHik-HKqaGJol-30" value="LionLog管理类" style="shape=callout;whiteSpace=wrap;html=1;perimeter=calloutPerimeter;base=15;position2=0.27;" vertex="1" parent="WIyWlLk6GJQsqaUBKTNV-1">
          <mxGeometry x="580" y="230" width="110" height="50" as="geometry" />
        </mxCell>
        <mxCell id="gvlKlWatHik-HKqaGJol-32" value="" style="endArrow=block;dashed=1;endFill=0;endSize=9;html=1;entryX=0.75;entryY=1;entryDx=0;entryDy=0;jumpSize=4;startSize=5;exitX=0.5;exitY=0;exitDx=0;exitDy=0;" edge="1" parent="WIyWlLk6GJQsqaUBKTNV-1" source="zkfFHV4jXpPFQw0GAbJ--13" target="gvlKlWatHik-HKqaGJol-13">
          <mxGeometry width="160" relative="1" as="geometry">
            <mxPoint x="150" y="649" as="sourcePoint" />
            <mxPoint x="233.5" y="560" as="targetPoint" />
          </mxGeometry>
        </mxCell>
        <mxCell id="gvlKlWatHik-HKqaGJol-33" value="LionLog的视图打印器" style="shape=callout;whiteSpace=wrap;html=1;perimeter=calloutPerimeter;base=15;position2=0.27;" vertex="1" parent="WIyWlLk6GJQsqaUBKTNV-1">
          <mxGeometry x="330" y="780" width="130" height="50" as="geometry" />
        </mxCell>
        <mxCell id="gvlKlWatHik-HKqaGJol-34" value="LionLog的文件打印器" style="shape=callout;whiteSpace=wrap;html=1;perimeter=calloutPerimeter;base=15;position2=0.81;" vertex="1" parent="WIyWlLk6GJQsqaUBKTNV-1">
          <mxGeometry x="10" y="585" width="130" height="50" as="geometry" />
        </mxCell>
        <mxCell id="gvlKlWatHik-HKqaGJol-35" value="   LionViewPrinterProvider" style="swimlane;fontStyle=1;align=center;verticalAlign=top;childLayout=stackLayout;horizontal=1;startSize=26;horizontalStack=0;resizeParent=1;resizeLast=0;collapsible=1;marginBottom=0;rounded=0;shadow=0;strokeWidth=1;" vertex="1" parent="WIyWlLk6GJQsqaUBKTNV-1">
          <mxGeometry x="610" y="840" width="160" height="118" as="geometry">
            <mxRectangle x="340" y="380" width="170" height="26" as="alternateBounds" />
          </mxGeometry>
        </mxCell>
        <mxCell id="gvlKlWatHik-HKqaGJol-36" value="rootView: FrameLayout&#xa;floatingView: View&#xa;isOpen: Boolean&#xa;logView: FrameLayout&#xa;recyclerView: RecyclerView" style="text;align=left;verticalAlign=top;spacingLeft=4;spacingRight=4;overflow=hidden;rotatable=0;points=[[0,0.5],[1,0.5]];portConstraint=eastwest;" vertex="1" parent="gvlKlWatHik-HKqaGJol-35">
          <mxGeometry y="26" width="160" height="84" as="geometry" />
        </mxCell>
        <mxCell id="gvlKlWatHik-HKqaGJol-37" value="" style="line;html=1;strokeWidth=1;align=left;verticalAlign=middle;spacingTop=-1;spacingLeft=3;spacingRight=3;rotatable=0;labelPosition=right;points=[];portConstraint=eastwest;" vertex="1" parent="gvlKlWatHik-HKqaGJol-35">
          <mxGeometry y="110" width="160" height="8" as="geometry" />
        </mxCell>
        <mxCell id="gvlKlWatHik-HKqaGJol-38" value="" style="endArrow=diamondThin;endFill=1;endSize=14;html=1;exitX=0;exitY=0.5;exitDx=0;exitDy=0;entryX=1;entryY=0.5;entryDx=0;entryDy=0;" edge="1" parent="WIyWlLk6GJQsqaUBKTNV-1" source="gvlKlWatHik-HKqaGJol-36" target="zkfFHV4jXpPFQw0GAbJ--14">
          <mxGeometry width="160" relative="1" as="geometry">
            <mxPoint x="270" y="920" as="sourcePoint" />
            <mxPoint x="430" y="920" as="targetPoint" />
          </mxGeometry>
        </mxCell>
        <mxCell id="gvlKlWatHik-HKqaGJol-39" value="LionConsolePrinter" style="swimlane;fontStyle=1;align=center;verticalAlign=top;childLayout=stackLayout;horizontal=1;startSize=26;horizontalStack=0;resizeParent=1;resizeLast=0;collapsible=1;marginBottom=0;rounded=0;shadow=0;strokeWidth=1;" vertex="1" parent="WIyWlLk6GJQsqaUBKTNV-1">
          <mxGeometry x="140" y="760" width="160" height="40" as="geometry">
            <mxRectangle x="130" y="380" width="160" height="26" as="alternateBounds" />
          </mxGeometry>
        </mxCell>
        <mxCell id="gvlKlWatHik-HKqaGJol-40" value="" style="line;html=1;strokeWidth=1;align=left;verticalAlign=middle;spacingTop=-1;spacingLeft=3;spacingRight=3;rotatable=0;labelPosition=right;points=[];portConstraint=eastwest;" vertex="1" parent="gvlKlWatHik-HKqaGJol-39">
          <mxGeometry y="26" width="160" height="8" as="geometry" />
        </mxCell>
        <mxCell id="gvlKlWatHik-HKqaGJol-41" value="" style="endArrow=block;dashed=1;endFill=0;endSize=9;html=1;entryX=0.5;entryY=1;entryDx=0;entryDy=0;jumpSize=4;startSize=5;" edge="1" parent="gvlKlWatHik-HKqaGJol-39" target="gvlKlWatHik-HKqaGJol-13">
          <mxGeometry width="160" relative="1" as="geometry">
            <mxPoint x="80" y="-1" as="sourcePoint" />
            <mxPoint x="240" y="-1" as="targetPoint" />
          </mxGeometry>
        </mxCell>
        <mxCell id="gvlKlWatHik-HKqaGJol-42" value="LionLog的控制台打印器" style="shape=callout;whiteSpace=wrap;html=1;perimeter=calloutPerimeter;base=15;position2=0.81;" vertex="1" parent="WIyWlLk6GJQsqaUBKTNV-1">
          <mxGeometry x="30" y="730" width="130" height="50" as="geometry" />
        </mxCell>
        <mxCell id="gvlKlWatHik-HKqaGJol-43" value="&lt;p style=&quot;margin: 0px ; margin-top: 4px ; text-align: center&quot;&gt;&lt;b&gt;LionLogConfig&lt;/b&gt;&lt;/p&gt;&lt;hr size=&quot;1&quot;&gt;&lt;p style=&quot;margin: 0px ; margin-left: 4px&quot;&gt;+ injectJsonParser: JsonParser&amp;nbsp;&lt;/p&gt;&lt;hr size=&quot;1&quot;&gt;&lt;p style=&quot;margin: 0px ; margin-left: 4px&quot;&gt;+ fun getGlobalTag(): String&lt;/p&gt;&lt;p style=&quot;margin: 0px ; margin-left: 4px&quot;&gt;+ fun enable(): Boolean&lt;/p&gt;&lt;p style=&quot;margin: 0px ; margin-left: 4px&quot;&gt;+ fun includeThread(): Boolean&lt;/p&gt;&lt;p style=&quot;margin: 0px ; margin-left: 4px&quot;&gt;+ fun stackTrackDepth(): Int&lt;/p&gt;&lt;p style=&quot;margin: 0px ; margin-left: 4px&quot;&gt;+ var printers: List&amp;lt;ILionLogPrinter&amp;gt;&lt;/p&gt;" style="verticalAlign=top;align=left;overflow=fill;fontSize=12;fontFamily=Helvetica;html=1;" vertex="1" parent="WIyWlLk6GJQsqaUBKTNV-1">
          <mxGeometry x="700" y="520" width="210" height="140" as="geometry" />
        </mxCell>
        <mxCell id="gvlKlWatHik-HKqaGJol-44" value="" style="endArrow=diamondThin;endFill=0;endSize=12;html=1;exitX=0.5;exitY=0;exitDx=0;exitDy=0;jumpSize=4;" edge="1" parent="WIyWlLk6GJQsqaUBKTNV-1" source="gvlKlWatHik-HKqaGJol-43">
          <mxGeometry width="160" relative="1" as="geometry">
            <mxPoint x="281" y="470" as="sourcePoint" />
            <mxPoint x="480" y="420" as="targetPoint" />
          </mxGeometry>
        </mxCell>
        <mxCell id="gvlKlWatHik-HKqaGJol-45" value="  LionStackTrackFormatter" style="swimlane;fontStyle=1;align=center;verticalAlign=top;childLayout=stackLayout;horizontal=1;startSize=26;horizontalStack=0;resizeParent=1;resizeLast=0;collapsible=1;marginBottom=0;rounded=0;shadow=0;strokeWidth=1;" vertex="1" parent="WIyWlLk6GJQsqaUBKTNV-1">
          <mxGeometry x="480" y="740" width="190" height="40" as="geometry">
            <mxRectangle x="130" y="380" width="160" height="26" as="alternateBounds" />
          </mxGeometry>
        </mxCell>
        <mxCell id="gvlKlWatHik-HKqaGJol-46" value="" style="line;html=1;strokeWidth=1;align=left;verticalAlign=middle;spacingTop=-1;spacingLeft=3;spacingRight=3;rotatable=0;labelPosition=right;points=[];portConstraint=eastwest;" vertex="1" parent="gvlKlWatHik-HKqaGJol-45">
          <mxGeometry y="26" width="190" height="8" as="geometry" />
        </mxCell>
        <mxCell id="gvlKlWatHik-HKqaGJol-47" value="" style="endArrow=block;dashed=1;endFill=0;endSize=9;html=1;jumpSize=4;startSize=5;entryX=0.421;entryY=0.986;entryDx=0;entryDy=0;entryPerimeter=0;" edge="1" parent="gvlKlWatHik-HKqaGJol-45" target="gvlKlWatHik-HKqaGJol-59">
          <mxGeometry width="160" relative="1" as="geometry">
            <mxPoint x="80" y="-1" as="sourcePoint" />
            <mxPoint x="92.29906542056074" y="-95" as="targetPoint" />
          </mxGeometry>
        </mxCell>
        <mxCell id="gvlKlWatHik-HKqaGJol-53" value="  LionThreadFormatter" style="swimlane;fontStyle=1;align=center;verticalAlign=top;childLayout=stackLayout;horizontal=1;startSize=26;horizontalStack=0;resizeParent=1;resizeLast=0;collapsible=1;marginBottom=0;rounded=0;shadow=0;strokeWidth=1;" vertex="1" parent="WIyWlLk6GJQsqaUBKTNV-1">
          <mxGeometry x="700" y="740" width="170" height="40" as="geometry">
            <mxRectangle x="130" y="380" width="160" height="26" as="alternateBounds" />
          </mxGeometry>
        </mxCell>
        <mxCell id="gvlKlWatHik-HKqaGJol-54" value="" style="line;html=1;strokeWidth=1;align=left;verticalAlign=middle;spacingTop=-1;spacingLeft=3;spacingRight=3;rotatable=0;labelPosition=right;points=[];portConstraint=eastwest;" vertex="1" parent="gvlKlWatHik-HKqaGJol-53">
          <mxGeometry y="26" width="170" height="8" as="geometry" />
        </mxCell>
        <mxCell id="gvlKlWatHik-HKqaGJol-55" value="" style="endArrow=block;dashed=1;endFill=0;endSize=9;html=1;jumpSize=4;startSize=5;entryX=0.5;entryY=1;entryDx=0;entryDy=0;" edge="1" parent="gvlKlWatHik-HKqaGJol-53" target="gvlKlWatHik-HKqaGJol-59">
          <mxGeometry width="160" relative="1" as="geometry">
            <mxPoint x="80" y="-1" as="sourcePoint" />
            <mxPoint x="-100.97196261682234" y="-95" as="targetPoint" />
          </mxGeometry>
        </mxCell>
        <mxCell id="gvlKlWatHik-HKqaGJol-59" value="&lt;p style=&quot;margin: 0px ; margin-top: 4px ; text-align: center&quot;&gt;&lt;i&gt;&amp;lt;&amp;lt;Interface&amp;gt;&amp;gt;&lt;/i&gt;&lt;br&gt;&lt;b&gt;ILionLogFormatter&lt;/b&gt;&lt;/p&gt;&lt;hr size=&quot;1&quot;&gt;&lt;p style=&quot;margin: 0px ; margin-left: 4px&quot;&gt;+ fun format(data: T)&lt;/p&gt;" style="verticalAlign=top;align=left;overflow=fill;fontSize=12;fontFamily=Helvetica;html=1;" vertex="1" parent="WIyWlLk6GJQsqaUBKTNV-1">
          <mxGeometry x="490" y="530" width="170" height="70" as="geometry" />
        </mxCell>
        <mxCell id="gvlKlWatHik-HKqaGJol-60" value="" style="endArrow=diamondThin;endFill=1;endSize=14;html=1;entryX=0.5;entryY=1;entryDx=0;entryDy=0;" edge="1" parent="WIyWlLk6GJQsqaUBKTNV-1" source="gvlKlWatHik-HKqaGJol-45" target="gvlKlWatHik-HKqaGJol-43">
          <mxGeometry width="160" relative="1" as="geometry">
            <mxPoint x="440" y="720" as="sourcePoint" />
            <mxPoint x="600" y="720" as="targetPoint" />
          </mxGeometry>
        </mxCell>
        <mxCell id="gvlKlWatHik-HKqaGJol-61" value="" style="endArrow=diamondThin;endFill=1;endSize=14;html=1;entryX=0.75;entryY=1;entryDx=0;entryDy=0;exitX=0.5;exitY=0;exitDx=0;exitDy=0;" edge="1" parent="WIyWlLk6GJQsqaUBKTNV-1" source="gvlKlWatHik-HKqaGJol-53" target="gvlKlWatHik-HKqaGJol-43">
          <mxGeometry width="160" relative="1" as="geometry">
            <mxPoint x="622.2727272727273" y="710" as="sourcePoint" />
            <mxPoint x="790" y="620" as="targetPoint" />
          </mxGeometry>
        </mxCell>
        <mxCell id="gvlKlWatHik-HKqaGJol-62" value="LionStackTrackUtilKt" style="swimlane;fontStyle=1;align=center;verticalAlign=top;childLayout=stackLayout;horizontal=1;startSize=26;horizontalStack=0;resizeParent=1;resizeLast=0;collapsible=1;marginBottom=0;rounded=0;shadow=0;strokeWidth=1;" vertex="1" parent="WIyWlLk6GJQsqaUBKTNV-1">
          <mxGeometry x="740" y="130" width="170" height="40" as="geometry">
            <mxRectangle x="130" y="380" width="160" height="26" as="alternateBounds" />
          </mxGeometry>
        </mxCell>
        <mxCell id="gvlKlWatHik-HKqaGJol-63" value="" style="line;html=1;strokeWidth=1;align=left;verticalAlign=middle;spacingTop=-1;spacingLeft=3;spacingRight=3;rotatable=0;labelPosition=right;points=[];portConstraint=eastwest;" vertex="1" parent="gvlKlWatHik-HKqaGJol-62">
          <mxGeometry y="26" width="170" height="8" as="geometry" />
        </mxCell>
        <mxCell id="gvlKlWatHik-HKqaGJol-65" value="LionLog的堆栈工具类" style="shape=callout;whiteSpace=wrap;html=1;perimeter=calloutPerimeter;base=15;position2=0.77;" vertex="1" parent="WIyWlLk6GJQsqaUBKTNV-1">
          <mxGeometry x="720" y="80" width="130" height="50" as="geometry" />
        </mxCell>
        <mxCell id="gvlKlWatHik-HKqaGJol-69" value="LionLog的日志model" style="shape=callout;whiteSpace=wrap;html=1;perimeter=calloutPerimeter;base=15;position2=0.81;" vertex="1" parent="WIyWlLk6GJQsqaUBKTNV-1">
          <mxGeometry x="700" y="200" width="130" height="50" as="geometry" />
        </mxCell>
        <mxCell id="gvlKlWatHik-HKqaGJol-74" value="LionLog的日志序列化接口" style="shape=callout;whiteSpace=wrap;html=1;perimeter=calloutPerimeter;base=15;position2=0.81;" vertex="1" parent="WIyWlLk6GJQsqaUBKTNV-1">
          <mxGeometry x="890" y="80" width="180" height="50" as="geometry" />
        </mxCell>
        <mxCell id="gvlKlWatHik-HKqaGJol-75" value="«interface»&lt;br&gt;&lt;b&gt;JsonParser&lt;/b&gt;" style="html=1;" vertex="1" parent="WIyWlLk6GJQsqaUBKTNV-1">
          <mxGeometry x="980" y="130" width="110" height="40" as="geometry" />
        </mxCell>
        <mxCell id="gvlKlWatHik-HKqaGJol-76" value="  LionLogType" style="swimlane;fontStyle=1;align=center;verticalAlign=top;childLayout=stackLayout;horizontal=1;startSize=26;horizontalStack=0;resizeParent=1;resizeLast=0;collapsible=1;marginBottom=0;rounded=0;shadow=0;strokeWidth=1;" vertex="1" parent="WIyWlLk6GJQsqaUBKTNV-1">
          <mxGeometry x="980" y="255" width="110" height="40" as="geometry">
            <mxRectangle x="130" y="380" width="160" height="26" as="alternateBounds" />
          </mxGeometry>
        </mxCell>
        <mxCell id="gvlKlWatHik-HKqaGJol-77" value="" style="line;html=1;strokeWidth=1;align=left;verticalAlign=middle;spacingTop=-1;spacingLeft=3;spacingRight=3;rotatable=0;labelPosition=right;points=[];portConstraint=eastwest;" vertex="1" parent="gvlKlWatHik-HKqaGJol-76">
          <mxGeometry y="26" width="110" height="8" as="geometry" />
        </mxCell>
        <mxCell id="gvlKlWatHik-HKqaGJol-78" value="LionLog的日志类型" style="shape=callout;whiteSpace=wrap;html=1;perimeter=calloutPerimeter;base=15;position2=0.81;" vertex="1" parent="WIyWlLk6GJQsqaUBKTNV-1">
          <mxGeometry x="930" y="200" width="130" height="50" as="geometry" />
        </mxCell>
        <mxCell id="gvlKlWatHik-HKqaGJol-86" value="LionLogModel" style="swimlane;fontStyle=1;align=center;verticalAlign=top;childLayout=stackLayout;horizontal=1;startSize=26;horizontalStack=0;resizeParent=1;resizeParentMax=0;resizeLast=0;collapsible=1;marginBottom=0;" vertex="1" parent="WIyWlLk6GJQsqaUBKTNV-1">
          <mxGeometry x="770" y="255" width="140" height="100" as="geometry" />
        </mxCell>
        <mxCell id="gvlKlWatHik-HKqaGJol-87" value="" style="line;strokeWidth=1;fillColor=none;align=left;verticalAlign=middle;spacingTop=-1;spacingLeft=3;spacingRight=3;rotatable=0;labelPosition=right;points=[];portConstraint=eastwest;" vertex="1" parent="gvlKlWatHik-HKqaGJol-86">
          <mxGeometry y="26" width="140" height="8" as="geometry" />
        </mxCell>
        <mxCell id="gvlKlWatHik-HKqaGJol-88" value="+ timeMillis：Long&#xa;+ logStr：String&#xa;+ tag：String&#xa;+ level：Int" style="text;strokeColor=none;fillColor=none;align=left;verticalAlign=top;spacingLeft=4;spacingRight=4;overflow=hidden;rotatable=0;points=[[0,0.5],[1,0.5]];portConstraint=eastwest;" vertex="1" parent="gvlKlWatHik-HKqaGJol-86">
          <mxGeometry y="34" width="140" height="66" as="geometry" />
        </mxCell>
      </root>
    </mxGraphModel>
  </diagram>
</mxfile>
